<?xml version="1.0" standalone="no"?>
<!DOCTYPE svg PUBLIC "-//W3C//DTD SVG 20010904//EN"
 "http://www.w3.org/TR/2001/REC-SVG-20010904/DTD/svg10.dtd">
<svg version="1.0" xmlns="http://www.w3.org/2000/svg"
 width="1200.000000pt" height="1200.000000pt" viewBox="0 0 1200.000000 1200.000000"
 preserveAspectRatio="xMidYMid meet">

<g transform="translate(0.000000,1200.000000) scale(0.100000,-0.100000)"
fill="#000000" stroke="none">
<path d="M7266 9785 c-189 -54 -333 -199 -380 -381 -13 -52 -16 -129 -16 -462
l0 -401 -37 -7 c-635 -109 -1168 -282 -1723 -558 -950 -472 -1706 -1168 -2230
-2051 -550 -928 -850 -2103 -854 -3345 l-1 -334 220 -22 c121 -13 232 -23 246
-23 25 -1 26 3 63 165 144 638 353 1183 632 1650 319 535 751 974 1259 1279
466 281 1004 454 1615 522 164 18 728 25 783 10 l27 -7 0 -358 c0 -388 3 -417
57 -530 41 -85 150 -190 243 -235 41 -19 103 -41 138 -48 124 -24 282 9 388
81 36 24 477 457 1125 1107 1146 1149 1108 1107 1145 1247 18 66 18 207 -1
275 -37 139 13 86 -1149 1249 -594 595 -1102 1096 -1127 1112 -78 51 -153 72
-269 76 -70 2 -121 -1 -154 -11z m2174 -2564 c0 -9 -2017 -2025 -2030 -2029
-6 -2 -10 123 -10 350 0 391 -3 420 -63 532 -68 129 -218 235 -387 273 -110
26 -667 25 -900 0 -879 -96 -1623 -378 -2254 -855 -338 -255 -668 -605 -918
-970 -32 -47 -58 -81 -58 -74 0 20 111 354 157 472 219 560 507 1040 882 1470
495 567 1198 1044 1953 1325 375 140 627 206 1143 300 194 36 341 160 415 350
23 57 24 76 31 415 4 195 8 384 8 420 l2 65 1014 -1019 c558 -560 1015 -1022
1015 -1025z"/>
</g>
</svg>
